<svg width="386" height="100" viewBox="0 0 386 100" fill="none" xmlns="http://www.w3.org/2000/svg">
<path d="M108.859 21.0589H112.721C115.73 21.0589 116.546 19.8549 116.546 17.5869V8.8029C116.546 6.53624 115.73 5.33224 112.721 5.33224H108.859V21.0589ZM113.181 1.40024C118.99 1.40024 121.007 4.34024 121.007 7.74024V18.6496C121.007 22.0149 118.99 24.9909 113.181 24.9909H104.395V1.40024H113.181Z" fill="#485156"/>
<path d="M125.785 1.40012H140.237V5.33212H130.249V11.0348H139.459V14.9668H130.249V21.0588H140.237V24.9908H125.785V1.40012Z" fill="#485156"/>
<path d="M149.477 24.9907H145.013V1.39999H149.477V24.9907Z" fill="#485156"/>
<path d="M110.881 90.4697V99.3604H108.379V90.4697H105.393V88.251H113.867V90.4697H110.881Z" fill="#485156"/>
<path d="M117.488 86.2979C118.304 85.7792 119.106 85.2645 119.756 84.7645L120.658 86.1645C119.856 86.7325 119.274 87.0659 118.322 87.5659L117.488 86.2979ZM115.152 99.3605V88.2512H122.142V90.4699H117.655V92.5032H121.792V94.7219H117.655V97.1419H122.142V99.3605H115.152Z" fill="#485156"/>
<path d="M126.313 95.7249C126.313 96.6916 126.63 97.2583 127.865 97.2583C128.666 97.2583 129.767 97.1569 130.734 96.9903L131.085 99.1783C129.983 99.4103 128.982 99.5276 127.865 99.5276C125.062 99.5276 123.811 98.1423 123.811 96.1236V91.4849C123.811 89.4676 125.062 88.0823 127.865 88.0823C128.982 88.0823 129.983 88.1983 131.085 88.4329L130.734 90.6183C129.767 90.4516 128.666 90.3529 127.865 90.3529C126.63 90.3529 126.313 90.9196 126.313 91.8863V95.7249Z" fill="#485156"/>
<path d="M135.138 92.053V99.3597H132.753V88.2504H135.822L139.475 95.9077V88.2504H141.861V99.3597H138.775L135.138 92.053Z" fill="#485156"/>
<path d="M144.113 88.2507H146.616V99.36H144.113V88.2507Z" fill="#485156"/>
<path d="M151.12 95.7249C151.12 96.6916 151.437 97.2583 152.672 97.2583C153.473 97.2583 154.574 97.1569 155.541 96.9903L155.892 99.1783C154.79 99.4103 153.789 99.5276 152.672 99.5276C149.869 99.5276 148.618 98.1423 148.618 96.1236V91.4849C148.618 89.4676 149.869 88.0823 152.672 88.0823C153.789 88.0823 154.79 88.1983 155.892 88.4329L155.541 90.6183C154.574 90.4516 153.473 90.3529 152.672 90.3529C151.437 90.3529 151.12 90.9196 151.12 91.8863V95.7249Z" fill="#485156"/>
<path d="M163.415 91.7041C163.415 90.8375 162.865 90.3028 161.613 90.3028C160.362 90.3028 159.813 90.8375 159.813 91.7041V95.9068C159.813 96.7748 160.362 97.3081 161.613 97.3081C162.865 97.3081 163.415 96.7748 163.415 95.9068V91.7041ZM165.918 96.1228C165.918 97.8081 164.75 99.5268 161.613 99.5268C158.477 99.5268 157.31 97.8081 157.31 96.1228V91.4855C157.31 89.8001 158.477 88.0815 161.613 88.0815C164.75 88.0815 165.918 89.8001 165.918 91.4855V96.1228Z" fill="#485156"/>
<path d="M173.142 98.0765H177.963V99.3605H171.707V88.2512H173.142V98.0765Z" fill="#485156"/>
<path d="M181.567 99.36H180.132V88.2507H181.567V99.36Z" fill="#485156"/>
<path d="M187.372 99.5271C186.304 99.5271 185.019 99.3271 184.068 98.9431L184.302 97.7764C185.32 98.0924 186.388 98.2591 187.404 98.2591C189.19 98.2591 189.558 97.7924 189.558 96.5244C189.558 95.0217 189.54 94.8884 187.255 94.3737C184.568 93.7724 184.252 93.2537 184.252 90.9511C184.252 89.0164 185.054 88.0817 187.806 88.0817C188.774 88.0817 189.924 88.2177 190.808 88.4484L190.691 89.6671C189.807 89.4671 188.756 89.3497 187.839 89.3497C186.02 89.3497 185.687 89.7177 185.687 91.0031C185.687 92.5377 185.687 92.6057 187.89 93.1551C190.843 93.8884 190.992 94.3217 190.992 96.4911C190.992 98.4257 190.424 99.5271 187.372 99.5271Z" fill="#485156"/>
<path d="M199.334 95.691C199.334 94.8057 198.834 94.3217 197.733 94.3217H194.93V98.1257H197.815C198.834 98.1257 199.334 97.691 199.334 96.8577V95.691ZM198.967 90.535C198.967 89.819 198.566 89.4857 197.698 89.4857H194.93V93.087H197.465C198.55 93.087 198.967 92.587 198.967 91.787V90.535ZM193.495 99.3604V88.251H197.782C199.534 88.251 200.402 89.035 200.402 90.5004V91.787C200.402 92.6364 200.118 93.2724 199.134 93.639C200.102 93.8057 200.769 94.4564 200.769 95.6417V96.975C200.769 98.527 199.686 99.3604 198.017 99.3604H193.495Z" fill="#485156"/>
<path d="M204.206 96.1233C204.206 97.4926 205.04 98.2593 206.792 98.2593C208.542 98.2593 209.378 97.4926 209.378 96.1233V91.4846C209.378 90.118 208.542 89.35 206.792 89.35C205.04 89.35 204.206 90.118 204.206 91.4846V96.1233ZM210.813 96.1566C210.813 98.0086 209.66 99.5273 206.792 99.5273C203.922 99.5273 202.772 98.0086 202.772 96.1566V91.454C202.772 89.5993 203.922 88.082 206.792 88.082C209.66 88.082 210.813 89.5993 210.813 91.454V96.1566Z" fill="#485156"/>
<path d="M217.167 89.2848L215.183 95.4408H219.151L217.167 89.2848ZM221.889 99.3608H220.438L219.519 96.6914H214.798L213.897 99.3608H212.446L216.201 88.2514H218.137L221.889 99.3608Z" fill="#485156"/>
<path d="M107.22 50.1084H110.381C112.599 50.1084 113.256 49.1857 113.256 47.4737V41.5031C113.256 39.7911 112.599 38.8684 110.381 38.8684H107.22V50.1084ZM110.447 37.1777C114.025 37.1777 115.144 39.0444 115.144 41.3711V47.6057C115.144 49.9324 114.025 51.7991 110.447 51.7991H105.332V37.1777H110.447Z" fill="#009FE3"/>
<path d="M117.997 37.178H126.603V38.8686H119.885V43.4566H126.12V45.1473H119.885V50.1086H126.625V51.798H117.997V37.178Z" fill="#009FE3"/>
<path d="M134.637 38.8688H131.299V44.8835H134.637C136.437 44.8835 137.051 44.3781 137.051 42.9515V40.8008C137.051 39.3515 136.437 38.8688 134.637 38.8688ZM129.411 37.1781H134.702C137.841 37.1781 138.939 38.5395 138.939 40.7781V42.9515C138.939 45.2128 137.841 46.5741 134.702 46.5741H131.299V51.7981H129.411V37.1781Z" fill="#009FE3"/>
<path d="M146.16 38.5393L143.548 46.6393H148.773L146.16 38.5393ZM152.372 51.798H150.464L149.255 48.286H143.043L141.857 51.798H139.948L144.887 37.178H147.433L152.372 51.798Z" fill="#009FE3"/>
<path d="M159.925 38.8688H156.302V44.8395H159.925C161.725 44.8395 162.339 44.3355 162.339 42.9075V40.8008C162.339 39.3515 161.725 38.8688 159.925 38.8688ZM159.881 46.5075H156.302V51.7981H154.414V37.1781H159.99C163.129 37.1781 164.227 38.5395 164.227 40.7781V42.8861C164.227 44.6195 163.59 45.8061 161.899 46.2888L165.698 51.7981H163.525L159.881 46.5075Z" fill="#009FE3"/>
<path d="M170.789 38.8688H166.421V37.1781H177.045V38.8688H172.677V51.7981H170.789V38.8688Z" fill="#009FE3"/>
<path d="M183.871 38.5393L181.259 46.6393H186.484L183.871 38.5393ZM190.083 51.798H188.175L186.966 48.286H180.754L179.568 51.798H177.659L182.598 37.178H185.144L190.083 51.798Z" fill="#009FE3"/>
<path d="M194.013 39.9444L193.728 51.7991H191.905L192.41 37.1777H194.802L199.018 48.4831L203.233 37.1777H205.625L206.13 51.7991H204.308L204.024 39.9444L200.292 49.9111H197.745L194.013 39.9444Z" fill="#009FE3"/>
<path d="M209.201 37.178H217.808V38.8686H211.089V43.4566H217.324V45.1473H211.089V50.1086H217.829V51.798H209.201V37.178Z" fill="#009FE3"/>
<path d="M222.417 39.3512V51.7979H220.617V37.1779H223.207L229.573 49.6912V37.1779H231.373V51.7979H228.784L222.417 39.3512Z" fill="#009FE3"/>
<path d="M237.607 38.8688H233.238V37.1781H243.862V38.8688H239.495V51.7981H237.607V38.8688Z" fill="#009FE3"/>
<path d="M246.956 47.54C246.956 49.34 248.055 50.3493 250.36 50.3493C252.664 50.3493 253.762 49.34 253.762 47.54V41.4373C253.762 39.6373 252.664 38.6267 250.36 38.6267C248.055 38.6267 246.956 39.6373 246.956 41.4373V47.54ZM255.65 47.584C255.65 50.02 254.136 52.0187 250.36 52.0187C246.584 52.0187 245.068 50.02 245.068 47.584V41.3933C245.068 38.956 246.584 36.9587 250.36 36.9587C254.136 36.9587 255.65 38.956 255.65 41.3933V47.584Z" fill="#009FE3"/>
<path d="M107.22 72.0609H110.381C112.599 72.0609 113.256 71.1369 113.256 69.4249V63.4543C113.256 61.7436 112.599 60.8209 110.381 60.8209H107.22V72.0609ZM110.447 59.1289C114.025 59.1289 115.144 60.9956 115.144 63.3236V69.5583C115.144 71.8836 114.025 73.7516 110.447 73.7516H105.332V59.1289H110.447Z" fill="#009FE3"/>
<path d="M117.997 59.1285H126.603V60.8219H119.885V65.4072H126.12V67.0979H119.885V72.0605H126.625V73.7512H117.997V59.1285Z" fill="#009FE3"/>
<path d="M133.693 59.1285H142.298V60.8219H135.581V65.4072H141.815V67.0979H135.581V72.0605H142.321V73.7512H133.693V59.1285Z" fill="#009FE3"/>
<path d="M146.908 61.3031V73.7511H145.106V59.1284H147.697L154.064 71.6417V59.1284H155.864V73.7511H153.273L146.908 61.3031Z" fill="#009FE3"/>
<path d="M160.714 69.5582C160.714 71.4222 161.263 72.2556 163.766 72.2556C164.534 72.2556 165.499 72.1916 166.51 71.9929V67.0316H168.331V73.3316C166.904 73.7516 165.214 73.9702 163.699 73.9702C159.967 73.9702 158.826 72.3676 158.826 69.6676V63.2356C158.826 60.2716 160.296 58.9102 163.94 58.9102C165.191 58.9102 166.64 59.0636 168.002 59.3702L167.783 60.9956C166.378 60.7529 165.06 60.6236 163.852 60.6236C161.438 60.6236 160.714 61.3476 160.714 63.3236V69.5582Z" fill="#009FE3"/>
<path d="M171.404 59.1285H180.009V60.8219H173.292V65.4072H179.526V67.0979H173.292V72.0605H180.032V73.7512H171.404V59.1285Z" fill="#009FE3"/>
<path d="M184.619 61.3031V73.7511H182.817V59.1284H185.408L191.775 71.6417V59.1284H193.575V73.7511H190.984L184.619 61.3031Z" fill="#009FE3"/>
<path d="M205.23 73.7509V67.1202H198.754V73.7509H196.866V59.1283H198.754V65.4309H205.23V59.1283H207.118V73.7509H205.23Z" fill="#009FE3"/>
<path d="M215.37 60.4905L212.758 68.5919H217.985L215.37 60.4905ZM221.584 73.7505H219.676L218.466 70.2385H212.253L211.068 73.7505H209.16L214.097 59.1292H216.644L221.584 73.7505Z" fill="#009FE3"/>
<path d="M229.133 60.8213H225.511V66.7906H229.133C230.933 66.7906 231.548 66.288 231.548 64.86V62.7506C231.548 61.3026 230.933 60.8213 229.133 60.8213ZM229.089 68.46H225.511V73.7506H223.623V59.128H229.199C232.339 59.128 233.436 60.4906 233.436 62.7306V64.8373C233.436 66.572 232.8 67.756 231.109 68.24L234.907 73.7506H232.735L229.089 68.46Z" fill="#009FE3"/>
<path d="M239.056 73.7507H237.168V59.128H239.056V73.7507Z" fill="#009FE3"/>
<path d="M247.417 60.4905L244.805 68.5919H250.032L247.417 60.4905ZM253.631 73.7505H251.723L250.513 70.2385H244.3L243.115 73.7505H241.207L246.144 59.1292H248.691L253.631 73.7505Z" fill="#009FE3"/>
<path d="M261.948 73.7507H260.06V59.128H261.948V73.7507Z" fill="#009FE3"/>
<path d="M267.152 61.3031V73.7511H265.352V59.1284H267.941L274.308 71.6417V59.1284H276.108V73.7511H273.518L267.152 61.3031Z" fill="#009FE3"/>
<path d="M279.402 73.7509V59.1283H288.095V60.8216H281.29V65.6936H287.634V67.3842H281.29V73.7509H279.402Z" fill="#009FE3"/>
<path d="M291.738 69.4905C291.738 71.2905 292.834 72.2998 295.139 72.2998C297.446 72.2998 298.543 71.2905 298.543 69.4905V63.3892C298.543 61.5892 297.446 60.5785 295.139 60.5785C292.834 60.5785 291.738 61.5892 291.738 63.3892V69.4905ZM300.431 69.5345C300.431 71.9718 298.915 73.9692 295.139 73.9692C291.363 73.9692 289.85 71.9718 289.85 69.5345V63.3452C289.85 60.9065 291.363 58.9092 295.139 58.9092C298.915 58.9092 300.431 60.9065 300.431 63.3452V69.5345Z" fill="#009FE3"/>
<path d="M308.904 60.8213H305.282V66.7906H308.904C310.704 66.7906 311.319 66.288 311.319 64.86V62.7506C311.319 61.3026 310.704 60.8213 308.904 60.8213ZM308.86 68.46H305.282V73.7506H303.394V59.128H308.97C312.107 59.128 313.207 60.4906 313.207 62.7306V64.8373C313.207 66.572 312.568 67.756 310.878 68.24L314.678 73.7506H312.503L308.86 68.46Z" fill="#009FE3"/>
<path d="M318.714 61.8968L318.43 73.7515H316.607L317.113 59.1288H319.506L323.719 70.4355L327.935 59.1288H330.329L330.831 73.7515H329.011L328.725 61.8968L324.993 71.8635H322.446L318.714 61.8968Z" fill="#009FE3"/>
<path d="M338.053 56.9333C339.039 56.3627 339.897 55.816 340.798 55.1333L341.631 56.4067C340.73 57.0867 339.807 57.636 338.801 58.1413L338.053 56.9333ZM338.865 60.4907L336.253 68.592H341.477L338.865 60.4907ZM345.077 73.7507H343.167L341.959 70.2387H335.747L334.563 73.7507H332.651L337.591 59.128H340.138L345.077 73.7507Z" fill="#009FE3"/>
<path d="M350.061 60.8213H345.691V59.128H356.315V60.8213H351.949V73.7506H350.061V60.8213Z" fill="#009FE3"/>
<path d="M360.177 73.7507H358.289V59.128H360.177V73.7507Z" fill="#009FE3"/>
<path d="M365.139 69.5582C365.139 71.5996 365.931 72.2556 368.324 72.2556C369.201 72.2556 370.628 72.1462 371.748 71.9489L371.944 73.5742C370.891 73.8156 369.355 73.9702 368.256 73.9702C364.677 73.9702 363.251 72.4329 363.251 69.6676V63.2116C363.251 60.4462 364.677 58.9102 368.256 58.9102C369.355 58.9102 370.891 59.0636 371.944 59.3062L371.748 60.9302C370.628 60.7329 369.201 60.6236 368.324 60.6236C365.931 60.6236 365.139 61.2822 365.139 63.3236V69.5582Z" fill="#009FE3"/>
<path d="M379.43 60.4905L376.818 68.5919H382.042L379.43 60.4905ZM385.641 73.7505H383.733L382.524 70.2385H376.313L375.128 73.7505H373.217L378.157 59.1292H380.704L385.641 73.7505Z" fill="#009FE3"/>
<path fill-rule="evenodd" clip-rule="evenodd" d="M41.3516 99.2667C41.3516 99.2667 0.663605 79.308 0.663605 42.0453V0.661331H82.1889V42.0453C82.1889 79.308 41.3516 99.2667 41.3516 99.2667Z" fill="#009FE3"/>
<path d="M63.129 31.7945H59.7303V57.3185H52.3823V31.7945H48.9983V26.6785H63.129V31.7945Z" fill="white"/>
<path d="M30.3333 57.3004H22.988L22.9947 26.6791H30.3227L30.3333 57.3004Z" fill="white"/>
<path d="M48.6888 9.32973C42.6128 9.32973 37.6835 12.4764 37.6835 18.5551V65.4564C37.6835 70.6057 37.6835 73.1551 34.0288 73.1551C30.6275 73.1551 30.3261 70.6177 30.3261 66.8657C30.3261 64.8417 28.6848 63.1991 26.6581 63.1991C24.6341 63.1991 22.9888 64.8417 22.9888 66.8657C22.9888 72.0297 27.9528 74.6857 34.0288 74.6857C40.1048 74.6857 45.0288 71.5324 45.0288 65.4564L45.0315 18.5551C45.0315 13.4084 45.0315 10.8564 48.6888 10.8564C52.0848 10.8564 52.3835 13.3991 52.3835 17.1444H52.3901C52.3901 19.1724 54.0315 20.8124 56.0555 20.8124C58.0848 20.8124 59.7235 19.1724 59.7235 17.1444H59.7301C59.7301 11.9804 54.7608 9.32973 48.6888 9.32973Z" fill="white"/>
</svg>
