<?xml version="1.0" encoding="UTF-8"?>
<!-- Generated by Pixelmator Pro 3.4.3 -->
<svg width="184" height="48" viewBox="0 0 184 48" xmlns="http://www.w3.org/2000/svg">
    <path id="Path" fill="#ffffff" stroke="none" opacity="0" d="M 80.880013 48.240002 C 54.01033 48.240002 27.140409 48.240002 0.255369 48.240002 C 0.255369 31.93656 0.255369 15.632927 0.255369 -0.720001 C 61.840088 -0.720001 123.439926 -0.720001 184.929367 -0.577347 C 176.598724 -0.43005 168.378723 -0.427448 160.158722 -0.414959 C 159.729614 -0.41431 159.300735 -0.329529 158.775131 -0.303299 C 158.320816 -0.348198 157.962967 -0.395782 157.604889 -0.395973 C 149.700256 -0.4002 141.795364 -0.400341 133.890488 -0.394917 C 133.575607 -0.394703 133.260971 -0.33213 132.838562 -0.330376 C 124.279205 -0.368805 115.827606 -0.376137 107.376007 -0.377995 C 107.181854 -0.378036 106.98745 -0.3162 106.687454 -0.319107 C 98.047928 -0.354992 89.514488 -0.354992 80.916969 -0.354992 C 80.916969 0.248924 80.916969 0.685986 80.916969 1.123047 C 80.916969 12.952774 80.919846 24.7824 80.915291 36.61224 C 80.913605 40.488243 80.89225 44.364002 80.880013 48.240002 M 49.521366 33.798 C 50.621769 32.571362 51.452408 31.204802 51.814568 29.478481 C 50.411289 29.478481 49.092491 29.434559 47.780407 29.509201 C 47.452087 29.52792 47.130489 29.910719 46.831928 30.157442 C 45.960968 30.877199 45.216251 31.935839 44.220009 32.285282 C 40.252811 33.676559 36.47929 30.938639 36.302887 26.60568 C 41.645527 26.60568 46.984806 26.60568 52.427288 26.60568 C 52.352169 25.18104 52.445286 23.83704 52.187767 22.563623 C 50.500328 14.217983 41.559128 12.978622 36.469212 16.187616 C 32.547848 18.659952 31.416967 22.524145 31.73737 26.885521 C 32.051769 31.165442 34.014008 34.51152 38.181847 35.996399 C 42.224411 37.436638 46.129448 37.135921 49.521366 33.798 M 25.882809 35.35704 C 25.882809 31.399439 25.919767 27.441599 25.869129 23.48448 C 25.838409 21.097969 25.45393 18.763176 23.798841 16.887432 C 20.857018 13.553593 14.742345 13.857479 11.643297 17.454744 C 11.428617 17.703938 11.209449 17.94924 10.898097 18.303648 C 10.747568 17.070816 10.619265 16.019855 10.487457 14.940289 C 9.136881 14.940289 7.840809 14.940289 6.535689 14.940289 C 6.535689 22.136833 6.535689 29.271358 6.535689 36.396477 C 8.0846 36.396477 9.57476 36.396477 11.082441 36.396477 C 11.082441 33.473038 11.062569 30.634802 11.090769 27.797039 C 11.105025 26.36232 11.085465 24.910561 11.293665 23.497919 C 11.708001 20.686033 14.003529 18.954023 16.926825 19.085928 C 19.550457 19.204296 20.967634 20.663712 21.146338 23.747999 C 21.294081 26.29776 21.219057 28.86072 21.233288 31.417679 C 21.242601 33.08712 21.235041 34.756802 21.235041 36.481682 C 22.599945 36.481682 23.839016 36.437519 25.073048 36.498241 C 25.816328 36.534721 25.96777 36.205681 25.882809 35.35704 M 74.274727 32.39856 C 72.96769 32.39856 71.660889 32.39856 70.28257 32.39856 C 70.28257 29.775122 70.303925 27.26664 70.275856 24.75864 C 70.252571 22.685064 70.278488 20.601959 70.084328 18.541729 C 69.886086 16.436712 68.744408 15.184418 66.655685 15.007488 C 64.292412 14.807304 61.899128 14.961311 59.551449 14.961311 C 59.551449 16.317097 59.551449 17.612448 59.551449 18.976944 C 61.137127 18.976944 62.649845 18.969746 64.162567 18.979944 C 64.929131 18.985128 65.538971 19.277472 65.543526 20.135399 C 65.565125 24.19536 65.553131 28.25568 65.553131 32.421841 C 63.270485 32.421841 61.094891 32.421841 58.90657 32.421841 C 58.90657 33.823681 58.90657 35.117519 58.90657 36.426479 C 64.950249 36.426479 70.925049 36.426479 76.94281 36.426479 C 76.94281 35.077202 76.94281 33.7836 76.94281 32.39856 C 76.093689 32.39856 75.303131 32.39856 74.274727 32.39856 M 66.540489 11.705616 C 67.056969 11.722321 67.577286 11.78791 68.088974 11.746319 C 69.490089 11.632465 70.769295 10.488407 71.030167 9.169704 C 71.349846 7.554745 70.638489 6.044353 69.238327 5.365463 C 67.38073 4.464577 64.989372 5.222687 64.203369 6.9618 C 63.344887 8.861111 64.221611 10.767406 66.540489 11.705616 Z"/>
    <path id="path1" fill="#5ee8fa" stroke="none" d="M 158.930862 -0.955914 C 159.016495 -0.965118 159.084045 -0.955891 159.170395 -0.955914 C 159.517517 -0.956024 159.78598 -0.955936 160.12851 -0.955914 C 168.331375 -0.955421 176.485779 -0.928379 184.800003 -0.955914 C 184.910645 15.380638 184.800003 31.520882 184.800003 47.94912 C 176.17215 47.94912 167.621658 48.113037 158.880005 47.999519 C 158.764633 31.645441 158.641891 15.284904 158.639999 -0.95591 M 167.913239 36.328079 C 165.81842 36.328079 163.723602 36.328079 161.645157 36.328079 C 161.645157 37.79784 161.645157 39.068161 161.645157 40.3452 C 168.356033 40.3452 174.986923 40.3452 181.60675 40.3452 C 181.60675 38.974319 181.60675 37.704002 181.60675 36.328079 C 177.069641 36.328079 172.611221 36.328079 167.913239 36.328079 Z"/>
    <path id="path2" fill="#35d1fa" stroke="none" d="M 158.880005 -0.95797 C 158.978394 15.34639 158.876877 31.727999 158.880005 48.12648 C 150.315842 48.240242 141.750381 48.240242 133.072464 48.12648 C 132.955429 31.72296 132.964569 15.331753 132.960007 -0.95797 C 133.271835 -0.950859 133.575714 -0.953552 133.890457 -0.95377 C 141.7957 -0.959255 149.774765 -0.962246 157.679993 -0.95797 C 158.037842 -0.957779 158.042404 -0.951809 158.880005 -0.95797 M 141.119568 22.144535 C 141.121948 24.812641 141.071564 27.482161 141.139893 30.148561 C 141.228699 33.61488 142.782028 35.73 146.046814 36.148079 C 148.664352 36.48312 151.357315 36.215759 154.013763 36.215759 C 154.013763 34.883522 154.013763 33.580318 154.013763 32.217361 C 153.196823 32.217361 152.47995 32.23872 151.76474 32.212799 C 150.411331 32.163361 149.054657 32.133121 147.707352 32.007122 C 146.610703 31.90464 145.986862 31.20504 145.87822 30.09816 C 145.791718 29.217119 145.727402 28.33008 145.721786 27.4452 C 145.702866 24.465601 145.714584 21.485928 145.714584 18.353064 C 148.61499 18.353064 151.383072 18.353064 154.17041 18.353064 C 154.17041 17.002512 154.17041 15.807938 154.17041 14.461536 C 151.332001 14.461536 148.561844 14.461536 145.692627 14.461536 C 145.692627 12.505943 145.692627 10.700809 145.692627 8.920464 C 142.488556 8.270496 142.106827 8.523361 141.624023 11.528927 C 141.598389 11.688408 141.592987 11.851463 141.56337 12.010006 C 141.23465 13.769878 140.483475 14.434631 138.709488 14.485489 C 137.729538 14.513569 136.748138 14.490505 135.75058 14.490505 C 135.75058 15.875137 135.75058 17.069448 135.75058 18.397415 C 137.553772 18.397415 139.289566 18.397415 141.119568 18.397415 C 141.119568 19.653912 141.119568 20.778049 141.119568 22.144535 Z"/>
    <path id="path3" fill="#2964fd" stroke="none" d="M 80.879997 47.997601 C 80.85125 44.094482 80.913658 40.411682 80.915184 36.497761 C 80.919853 24.551519 80.916885 12.605114 80.916885 0.65884 C 80.916885 0.217472 80.879997 -0.350136 80.879997 -0.959999 C 89.47567 -0.959999 98.055962 -0.943665 106.799881 -0.959999 C 106.913643 -0.814198 106.801079 -0.542019 106.799881 -0.3652 C 106.796043 15.912479 106.795319 32.076241 106.794365 48.240002 C 98.231255 48.240002 89.555641 47.997601 80.879997 47.997601 M 91.473358 23.64048 C 91.473358 26.486879 91.473358 29.333519 91.473358 32.273521 C 89.155464 32.273521 87.012962 32.273521 84.834503 32.273521 C 84.834503 33.676079 84.834503 34.980721 84.834503 36.284161 C 90.886826 36.284161 96.85939 36.284161 102.822983 36.284161 C 102.822983 34.897202 102.822983 33.593758 102.822983 32.200081 C 100.58268 32.200081 98.437988 32.200081 96.201073 32.200081 C 96.201073 28.925041 96.218422 25.743839 96.193275 22.562952 C 96.181824 21.113352 96.189003 19.651009 96.004967 18.218376 C 95.730507 16.08132 94.619522 14.839462 92.534401 14.667839 C 90.205132 14.476128 87.84845 14.623871 85.479721 14.623871 C 85.479721 15.984505 85.479721 17.288111 85.479721 18.681768 C 87.03096 18.681768 88.503502 18.681528 89.976021 18.681864 C 91.010544 18.682081 91.516342 19.171583 91.480682 20.249474 C 91.445953 21.298008 91.473289 22.348656 91.473358 23.64048 M 96.975388 7.491119 C 96.464279 5.219135 94.480324 4.052952 92.267044 4.723488 C 90.334366 5.30904 89.322243 7.344097 90.029808 9.221855 C 90.633362 10.823662 92.383942 11.714497 94.248405 11.368607 C 95.978188 11.047729 96.95784 9.737305 96.975388 7.491119 Z"/>
    <path id="path4" fill="#258be3" stroke="none" d="M 106.80835 -0.460613 C 106.806732 -0.523499 106.8078 -0.838459 106.800003 -0.947987 C 106.855782 -0.936131 107.002251 -0.948376 107.040001 -0.947987 C 107.155457 -0.946804 107.132401 -0.948021 107.279999 -0.947987 C 115.73159 -0.946114 124.400627 -0.980129 132.959946 -0.941334 C 132.984665 2.642376 132.96907 6.129864 132.959946 9.713783 C 132.928268 22.42008 133.071777 35.282879 133.199936 47.999279 C 124.634987 48.112801 115.477501 48.112801 106.800003 47.999279 C 106.689949 32.232002 106.811882 16.647936 106.800003 0.990517 C 106.799622 0.489563 106.801666 0.045345 106.80835 -0.460613 M 122.053955 14.518368 C 119.07299 14.116032 116.123772 14.055672 113.515816 15.881641 C 110.121635 18.258097 110.288826 23.20104 113.8815 25.246559 C 115.104996 25.943041 116.537003 26.30928 117.912544 26.6796 C 119.409515 27.08256 120.962387 27.26952 122.470001 27.637918 C 123.384109 27.86112 123.97876 28.479601 124.122108 29.489759 C 124.270454 30.535198 123.843521 31.291439 123.052719 31.886158 C 120.68219 33.66888 116.469734 32.6064 115.215492 29.93424 C 115.103508 29.69544 114.824898 29.378641 114.613937 29.37096 C 113.22448 29.32056 111.832359 29.345041 110.348915 29.345041 C 110.486389 31.329119 111.245171 32.873039 112.56736 34.136158 C 116.107071 37.517521 123.473152 37.504082 127.06852 34.192558 C 129.735031 31.736639 129.90239 25.8624 125.134743 24.355202 C 123.510017 23.84136 121.778656 23.681761 120.114952 23.280001 C 118.925102 22.992889 117.687782 22.72728 116.61544 22.170048 C 115.402504 21.539736 115.332542 20.117256 116.264992 19.216368 C 117.761414 17.770607 122.401619 17.711208 123.524605 20.377655 C 123.629105 20.625744 123.909714 20.9646 124.120529 20.973528 C 125.421204 21.028656 126.725296 21.001223 128.029556 21.001223 C 127.892174 17.681879 125.817154 15.422974 122.053955 14.518368 Z"/>
    <path id="path5" fill="#000000" stroke="none" d="M 49.460831 33.858574 C 46.129391 37.13599 42.224472 37.436661 38.181839 35.996422 C 34.013981 34.511566 32.05175 31.16551 31.737408 26.885612 C 31.417067 22.524141 32.547859 18.659948 36.469273 16.187622 C 41.55912 12.978634 50.500271 14.217987 52.187759 22.563622 C 52.445206 23.836966 52.352253 25.181156 52.427349 26.605677 C 46.984871 26.605677 41.645542 26.605677 36.302784 26.605677 C 36.479328 30.938564 40.252895 33.676628 44.220024 32.285278 C 45.216286 31.935862 45.960865 30.87722 46.831848 30.157557 C 47.130577 29.910742 47.45208 29.528013 47.780399 29.509293 C 49.09248 29.434484 50.411327 29.47843 51.814487 29.47843 C 51.452377 31.204918 50.621735 32.571381 49.460831 33.858574 M 41.717255 18.760462 C 38.628479 19.272764 36.829128 20.751429 36.569878 22.963245 C 40.282608 22.963245 43.998432 22.963245 47.727406 22.963245 C 47.183781 20.095413 45.313869 18.761684 41.717255 18.760462 Z"/>
    <path id="path6" fill="#000000" stroke="none" d="M 25.882877 35.472031 C 25.96767 36.205734 25.816326 36.534607 25.072952 36.498127 C 23.839014 36.437572 22.599943 36.481636 21.235039 36.481636 C 21.235039 34.75676 21.242599 33.087173 21.233288 31.417686 C 21.219055 28.860607 21.294079 26.297766 21.146336 23.748077 C 20.96763 20.663694 19.550455 19.204302 16.926823 19.085911 C 14.003527 18.954031 11.707999 20.686014 11.293663 23.497831 C 11.085463 24.910589 11.105023 26.36235 11.090767 27.797167 C 11.062567 30.634878 11.082463 33.473068 11.082463 36.396366 C 9.574759 36.396366 8.084599 36.396366 6.535687 36.396366 C 6.535687 29.271246 6.535687 22.136814 6.535687 14.940281 C 7.840797 14.940281 9.136879 14.940281 10.487455 14.940281 C 10.619263 16.019859 10.747567 17.070822 10.898095 18.303654 C 11.209447 17.949245 11.428615 17.703943 11.643295 17.45475 C 14.742343 13.857491 20.857016 13.553585 23.79884 16.887444 C 25.454023 18.763182 25.838503 21.097975 25.86908 23.484558 C 25.919767 27.441486 25.882877 31.399542 25.882877 35.472031 Z"/>
    <path id="path7" fill="#000000" stroke="none" d="M 74.393654 32.398605 C 75.303108 32.398605 76.093674 32.398605 76.942741 32.398605 C 76.942741 33.783501 76.942741 35.077293 76.942741 36.426453 C 70.925148 36.426453 64.950348 36.426453 58.906452 36.426453 C 58.906452 35.117538 58.906452 33.823746 58.906452 32.42186 C 61.09481 32.42186 63.270542 32.42186 65.553185 32.42186 C 65.553185 28.255724 65.565155 24.195475 65.543533 20.135395 C 65.538971 19.277468 64.929184 18.985125 64.162498 18.97994 C 62.64983 18.96974 61.137024 18.97694 59.551357 18.97694 C 59.551357 17.612444 59.551357 16.317091 59.551357 14.961323 C 61.899136 14.961323 64.292412 14.807304 66.655693 15.007484 C 68.744461 15.184425 69.88607 16.436714 70.084381 18.541748 C 70.278473 20.601955 70.252502 22.685061 70.275803 24.758659 C 70.304008 27.266611 70.282501 29.775139 70.282501 32.398605 C 71.66082 32.398605 72.967789 32.398605 74.393654 32.398605 Z"/>
    <path id="path8" fill="#000000" stroke="none" d="M 66.447563 11.672176 C 64.221718 10.767426 63.344925 8.861103 64.203407 6.961807 C 64.989479 5.222698 67.380684 4.464573 69.238449 5.365463 C 70.638397 6.04435 71.349777 7.554737 71.03022 9.169697 C 70.769272 10.4884 69.490189 11.632458 68.089088 11.746338 C 67.577415 11.787903 67.057022 11.722313 66.447563 11.672176 Z"/>
    <path id="path9" fill="#000000" stroke="none" opacity="0" d="M 168 36.48 C 172.587219 36.48 177.054382 36.48 181.600388 36.48 C 181.600388 37.843868 181.600388 39.103226 181.600388 40.462055 C 174.967575 40.462055 168.323654 40.462055 161.599625 40.462055 C 161.599625 39.196224 161.599625 37.936859 161.599625 36.48 C 163.682159 36.48 165.781082 36.48 168 36.48 Z"/>
    <path id="path10" fill="#000000" stroke="none" opacity="0" d="M 141.119156 22.321041 C 141.119156 21.08989 141.119156 19.978521 141.119156 18.736305 C 139.289276 18.736305 137.553543 18.736305 135.750458 18.736305 C 135.750458 17.423433 135.750458 16.242704 135.750458 14.873817 C 136.747955 14.873817 137.729309 14.896595 138.709229 14.868851 C 140.483109 14.818569 141.234238 14.161377 141.562973 12.421497 C 141.59256 12.264751 141.597977 12.103569 141.623596 11.945889 C 142.106369 8.974487 142.488068 8.724483 145.692017 9.367081 C 145.692017 11.127193 145.692017 12.911793 145.692017 14.845161 C 148.561081 14.845161 151.331116 14.845161 154.169373 14.845161 C 154.169373 16.176273 154.169373 17.357243 154.169373 18.692457 C 151.382187 18.692457 148.614243 18.692457 145.713959 18.692457 C 145.713959 21.789705 145.702271 24.735538 145.721176 27.681154 C 145.726791 28.555977 145.791092 29.432985 145.877594 30.304113 C 145.986237 31.398273 146.610016 32.09005 147.706635 32.191376 C 149.053894 32.315842 150.410492 32.345867 151.763855 32.394585 C 152.479004 32.420338 153.195831 32.399147 154.012726 32.399147 C 154.012726 33.746506 154.012726 35.035065 154.012726 36.352184 C 151.35643 36.352184 148.663574 36.616425 146.046188 36.284985 C 142.78154 35.871704 141.228287 33.780827 141.139481 30.353912 C 141.071182 27.717827 141.121552 25.07864 141.119156 22.321041 Z"/>
    <path id="path11" fill="#000000" stroke="none" opacity="0" d="M 91.475655 23.760597 C 91.475555 22.601254 91.448219 21.560854 91.482948 20.522541 C 91.518639 19.455166 91.012718 18.970461 89.977959 18.970221 C 88.505127 18.96991 87.032288 18.970148 85.480705 18.970148 C 85.480705 17.590076 85.480705 16.299198 85.480705 14.951828 C 87.849945 14.951828 90.20713 14.805542 92.536911 14.995377 C 94.622459 15.165318 95.733711 16.395067 96.008247 18.511269 C 96.192276 19.929909 96.185097 21.377996 96.196571 22.813461 C 96.221725 25.963293 96.204369 29.113485 96.204369 32.356651 C 98.44175 32.356651 100.586914 32.356651 102.827698 32.356651 C 102.827698 33.736748 102.827698 35.02747 102.827698 36.400799 C 96.862839 36.400799 90.888969 36.400799 84.835358 36.400799 C 84.835358 35.110027 84.835358 33.818085 84.835358 32.429207 C 87.014267 32.429207 89.157227 32.429207 91.475632 32.429207 C 91.475632 29.517981 91.475632 26.699205 91.475655 23.760597 Z"/>
    <path id="path12" fill="#000000" stroke="none" opacity="0" d="M 96.987526 7.990997 C 96.961296 10.112934 95.981422 11.410564 94.251289 11.728325 C 92.386414 12.070827 90.635452 11.188683 90.031769 9.602524 C 89.324059 7.743076 90.336403 5.727867 92.269485 5.148048 C 94.483246 4.484039 96.467613 5.638851 96.987526 7.990997 Z"/>
    <path id="path13" fill="#000000" stroke="none" opacity="0" d="M 122.154861 14.850361 C 125.817169 15.73032 127.892159 17.967955 128.029541 21.25605 C 126.725304 21.25605 125.421196 21.283243 124.120514 21.228643 C 123.909721 21.219788 123.629089 20.884123 123.52462 20.638363 C 122.401634 17.997019 117.761398 18.055866 116.264999 19.488018 C 115.33255 20.380434 115.402489 21.789522 116.615448 22.413906 C 117.68779 22.965908 118.925087 23.228994 120.11496 23.513491 C 121.778641 23.911291 123.510025 24.069595 125.13475 24.578444 C 129.902405 26.071604 129.735031 31.890356 127.068527 34.323235 C 123.47316 37.603603 116.107079 37.616875 112.567352 34.267387 C 111.245163 33.016266 110.486382 31.486794 110.34893 29.521292 C 111.832359 29.521292 113.224487 29.497122 114.613922 29.547091 C 114.824883 29.554674 115.103523 29.86857 115.215508 30.104923 C 116.469719 32.752075 120.682198 33.804523 123.052727 32.038628 C 123.843529 31.449499 124.270462 30.700291 124.122093 29.66469 C 123.978745 28.664154 123.384117 28.051506 122.470009 27.83025 C 120.962379 27.46538 119.409508 27.280075 117.912552 26.880955 C 116.536995 26.514212 115.105011 26.151474 113.881516 25.461403 C 110.288834 23.435106 110.121651 18.538748 113.5158 16.184673 C 116.123787 14.37587 119.072998 14.435673 122.154861 14.850361 Z"/>
    <path id="path14" fill="#fbfbfb" stroke="none" opacity="0" d="M 41.82238 18.760052 C 45.313873 18.761688 47.183788 20.095407 47.727409 22.963243 C 43.998436 22.963243 40.282612 22.963243 36.569881 22.963243 C 36.829132 20.75144 38.628483 19.272757 41.82238 18.760052 Z"/>
</svg>
