<svg xmlns="http://www.w3.org/2000/svg" fill="currentColor" height="20" viewBox="0 96 960 960" width="20"><path d="M480 685q45.456 0 77.228-31.772Q589 621.456 589 576q0-45.456-31.772-77.228Q525.456 467 480 467q-45.456 0-77.228 31.772Q371 530.544 371 576q0 45.456 31.772 77.228Q434.544 685 480 685Zm-.226 83Q400 768 344 711.774t-56-136Q288 496 344.226 440t136-56Q560 384 616 440.226t56 136Q672 656 615.774 712t-136 56ZM84 617.5q-17.452 0-29.476-11.963Q42.5 593.573 42.5 576.211q0-17.363 12.024-29.537T84 534.5h96q17.452 0 29.476 11.963 12.024 11.964 12.024 29.326 0 17.363-12.024 29.537T180 617.5H84Zm696 0q-17.452 0-29.476-11.963-12.024-11.964-12.024-29.326 0-17.363 12.024-29.537T780 534.5h96q17.452 0 29.476 11.963 12.024 11.964 12.024 29.326 0 17.363-12.024 29.537T876 617.5h-96Zm-299.789-300q-17.363 0-29.537-12.024T438.5 276v-96q0-17.452 11.963-29.476 11.964-12.024 29.326-12.024 17.363 0 29.537 12.024T521.5 180v96q0 17.452-11.963 29.476-11.964 12.024-29.326 12.024Zm0 696q-17.363 0-29.537-12.02Q438.5 989.452 438.5 972v-96q0-17.452 11.963-29.476 11.964-12.024 29.326-12.024 17.363 0 29.537 12.024T521.5 876v96q0 17.452-11.963 29.48-11.964 12.02-29.326 12.02ZM238.174 393.065l-50-51Q175.5 330.391 175.5 313.739t12.674-29.565q11.869-12.674 28.804-12.674t28.848 12.674l51.239 50q12.674 12.376 12.555 29.236-.12 16.86-12.555 29.475-11.674 12.615-28.945 12.854-17.272.239-29.946-12.674Zm476 474.761-51.239-50q-12.674-12.101-12.674-28.92 0-16.819 12.674-29.732Q674.609 746.5 691.88 746.5q17.272 0 29.946 12.674l50 50.761q12.674 11.674 12.674 28.326t-12.196 29.565Q759.391 880.5 743.239 880.5t-29.065-12.674Zm-51.059-474.761Q650.5 381.391 650.5 364.12q0-17.272 12.674-29.946l50.761-50Q726.609 271.5 742.761 272t29.065 12.217q12.674 12.392 12.674 28.544t-12.674 29.065l-50 51.239q-12.376 12.674-29.236 12.555-16.86-.12-29.475-12.555ZM188.174 867.826Q175.5 855.957 175.5 839.022t12.674-28.848l50-51.239q12.101-11.674 28.92-11.674 16.819 0 29.732 11.674 12.674 12.674 12.216 29.612-.459 16.939-12.216 29.279l-50.761 50Q234.391 880.5 217.739 880.5t-29.565-12.674ZM480 576Z"/></svg>